<?xml version="1.0" encoding="UTF-8"?><svg id="Layer_2" xmlns="http://www.w3.org/2000/svg" viewBox="0 0 338.91 339.67"><defs><style>.cls-1,.cls-2,.cls-3,.cls-4,.cls-5{fill:none;}.cls-1,.cls-2,.cls-3,.cls-6{stroke-miterlimit:10;}.cls-1,.cls-2,.cls-3,.cls-6,.cls-5{stroke:#000;}.cls-1,.cls-3{stroke-linecap:square;}.cls-1,.cls-6,.cls-5{stroke-width:2px;}.cls-3{stroke-width:3px;}.cls-6{fill:#fff;}</style></defs><g><rect class="cls-2" x="25.57" y="115.34" width="287.78" height="92.07"/><line class="cls-2" x1="25.57" y1="201.27" x2="313.35" y2="201.27"/><line class="cls-2" x1="25.57" y1="195.13" x2="313.35" y2="195.13"/><line class="cls-2" x1="25.57" y1="188.99" x2="313.35" y2="188.99"/><line class="cls-2" x1="25.57" y1="182.86" x2="313.35" y2="182.86"/><line class="cls-2" x1="25.57" y1="176.72" x2="313.35" y2="176.72"/><line class="cls-2" x1="25.57" y1="170.58" x2="313.35" y2="170.58"/><line class="cls-2" x1="25.57" y1="164.44" x2="313.35" y2="164.44"/><line class="cls-2" x1="25.57" y1="158.3" x2="313.35" y2="158.3"/><line class="cls-2" x1="25.57" y1="152.17" x2="313.35" y2="152.17"/><line class="cls-2" x1="25.57" y1="146.03" x2="313.35" y2="146.03"/><line class="cls-2" x1="25.57" y1="139.89" x2="313.35" y2="139.89"/><line class="cls-2" x1="25.57" y1="133.75" x2="313.35" y2="133.75"/><line class="cls-2" x1="25.57" y1="127.62" x2="313.35" y2="127.62"/><line class="cls-2" x1="25.57" y1="121.48" x2="313.35" y2="121.48"/><line class="cls-2" x1="297.36" y1="115.34" x2="297.36" y2="207.41"/><line class="cls-2" x1="281.37" y1="115.34" x2="281.37" y2="207.41"/><line class="cls-2" x1="265.38" y1="115.34" x2="265.38" y2="207.41"/><line class="cls-2" x1="249.4" y1="115.34" x2="249.4" y2="207.41"/><line class="cls-2" x1="233.41" y1="115.34" x2="233.41" y2="207.41"/><line class="cls-2" x1="217.42" y1="115.34" x2="217.42" y2="207.41"/><line class="cls-2" x1="201.43" y1="115.34" x2="201.43" y2="207.41"/><line class="cls-2" x1="185.44" y1="115.34" x2="185.44" y2="207.41"/><line class="cls-2" x1="169.46" y1="115.34" x2="169.46" y2="207.41"/><line class="cls-2" x1="153.47" y1="115.34" x2="153.47" y2="207.41"/><line class="cls-2" x1="137.48" y1="115.34" x2="137.48" y2="207.41"/><line class="cls-2" x1="121.49" y1="115.34" x2="121.49" y2="207.41"/><line class="cls-2" x1="105.51" y1="115.34" x2="105.51" y2="207.41"/><line class="cls-2" x1="89.52" y1="115.34" x2="89.52" y2="207.41"/><line class="cls-2" x1="73.53" y1="115.34" x2="73.53" y2="207.41"/><line class="cls-2" x1="57.54" y1="115.34" x2="57.54" y2="207.41"/><line class="cls-2" x1="41.55" y1="115.34" x2="41.55" y2="207.41"/></g><g><rect class="cls-2" x="25.57" y="222.44" width="287.78" height="92.07"/><line class="cls-2" x1="25.57" y1="308.37" x2="313.35" y2="308.37"/><line class="cls-2" x1="25.57" y1="302.23" x2="313.35" y2="302.23"/><line class="cls-2" x1="25.57" y1="296.09" x2="313.35" y2="296.09"/><line class="cls-2" x1="25.57" y1="289.95" x2="313.35" y2="289.95"/><line class="cls-2" x1="25.57" y1="283.82" x2="313.35" y2="283.82"/><line class="cls-2" x1="25.57" y1="277.68" x2="313.35" y2="277.68"/><line class="cls-2" x1="25.57" y1="271.54" x2="313.35" y2="271.54"/><line class="cls-2" x1="25.57" y1="265.4" x2="313.35" y2="265.4"/><line class="cls-2" x1="25.57" y1="259.27" x2="313.35" y2="259.27"/><line class="cls-2" x1="25.57" y1="253.13" x2="313.35" y2="253.13"/><line class="cls-2" x1="25.57" y1="246.99" x2="313.35" y2="246.99"/><line class="cls-2" x1="25.57" y1="240.85" x2="313.35" y2="240.85"/><line class="cls-2" x1="25.57" y1="234.71" x2="313.35" y2="234.71"/><line class="cls-2" x1="25.57" y1="228.58" x2="313.35" y2="228.58"/><line class="cls-2" x1="297.36" y1="222.44" x2="297.36" y2="314.51"/><line class="cls-2" x1="281.37" y1="222.44" x2="281.37" y2="314.51"/><line class="cls-2" x1="265.38" y1="222.44" x2="265.38" y2="314.51"/><line class="cls-2" x1="249.4" y1="222.44" x2="249.4" y2="314.51"/><line class="cls-2" x1="233.41" y1="222.44" x2="233.41" y2="314.51"/><line class="cls-2" x1="217.42" y1="222.44" x2="217.42" y2="314.51"/><line class="cls-2" x1="201.43" y1="222.44" x2="201.43" y2="314.51"/><line class="cls-2" x1="185.44" y1="222.44" x2="185.44" y2="314.51"/><line class="cls-2" x1="169.46" y1="222.44" x2="169.46" y2="314.51"/><line class="cls-2" x1="153.47" y1="222.44" x2="153.47" y2="314.51"/><line class="cls-2" x1="137.48" y1="222.44" x2="137.48" y2="314.51"/><line class="cls-2" x1="121.49" y1="222.44" x2="121.49" y2="314.51"/><line class="cls-2" x1="105.51" y1="222.44" x2="105.51" y2="314.51"/><line class="cls-2" x1="89.52" y1="222.44" x2="89.52" y2="314.51"/><line class="cls-2" x1="73.53" y1="222.44" x2="73.53" y2="314.51"/><line class="cls-2" x1="57.54" y1="222.44" x2="57.54" y2="314.51"/><line class="cls-2" x1="41.55" y1="222.44" x2="41.55" y2="314.51"/></g><path class="cls-5" d="m1,1h336.91v337.67H1V1Z"/><path class="cls-6" d="m15.57,105.34v219.16h307.78V105.34H15.57Zm10,35.59l92.1,66.48H25.57v-66.48Zm0,81.51h92.1l-92.1,66.48v-66.48Zm136.37,92.07H25.57v-10.79l112.6-81.28h23.77v92.07Zm0-107.1h-23.77L25.57,126.13v-10.79h136.37v92.07Zm151.41,107.1h-136.37v-92.07h23.77l112.6,81.28v10.79Zm0-25.59l-92.1-66.48h92.1v66.48Zm0-81.51h-92.1l92.1-66.48v66.48Zm0-81.28l-112.6,81.28h-23.77v-92.07h136.37v10.79Z"/><rect class="cls-6" x="67.97" y="277.68" width="203.74" height="18.41"/><path d="m129.3,11.5h74.33v56.88h-74.33V11.5Z"/><path class="cls-1" d="m10.72,13.54h109.89v54.84H10.72V13.54Z"/><path class="cls-4" d="m10.72,68.49L50.4,14.41"/><path class="cls-1" d="m10.72,68.49L50.4,14.41"/><path class="cls-4" d="m33.02,68.49L72.71,14.41"/><path class="cls-1" d="m33.02,68.49L72.71,14.41"/><path class="cls-4" d="m55.33,68.49L95.01,14.41"/><path class="cls-1" d="m55.33,68.49L95.01,14.41"/><path class="cls-4" d="m77.63,68.49L117.32,14.41"/><path class="cls-1" d="m77.63,68.49L117.32,14.41"/><path class="cls-1" d="m212.32,12.47h109.89v54.84h-109.89V12.47Z"/><path d="m212.32,67.42l39.69-54.08"/><path class="cls-1" d="m212.32,67.42l39.69-54.08"/><path class="cls-4" d="m234.62,67.42l39.68-54.08"/><path class="cls-1" d="m234.62,67.42l39.68-54.08"/><path class="cls-4" d="m256.93,67.42l39.68-54.08"/><path class="cls-1" d="m256.93,67.42l39.68-54.08"/><path class="cls-4" d="m279.23,67.42l39.68-54.08"/><path class="cls-1" d="m279.23,67.42l39.68-54.08"/><line class="cls-3" x1="138.79" y1="67.3" x2="138.79" y2="104.15"/><line class="cls-3" x1="151.51" y1="67.3" x2="151.51" y2="104.15"/><line class="cls-3" x1="160.35" y1="67.3" x2="160.35" y2="104.15"/><line class="cls-3" x1="194.47" y1="67.3" x2="194.47" y2="104.15"/></svg>
